<?xml version="1.0" encoding="UTF-8" standalone="no"?>
<!-- Created with Inkscape (http://www.inkscape.org/) -->

<svg
   width="275mm"
   height="186mm"
   viewBox="0 0 275 186"
   version="1.1"
   id="svg1"
   xml:space="preserve"
   sodipodi:docname="associated_projects.svg"
   inkscape:version="1.4 (86a8ad7, 2024-10-11)"
   xmlns:inkscape="http://www.inkscape.org/namespaces/inkscape"
   xmlns:sodipodi="http://sodipodi.sourceforge.net/DTD/sodipodi-0.dtd"
   xmlns="http://www.w3.org/2000/svg"
   xmlns:svg="http://www.w3.org/2000/svg"><sodipodi:namedview
     id="namedview1"
     pagecolor="#ffffff"
     bordercolor="#000000"
     borderopacity="0.25"
     inkscape:showpageshadow="2"
     inkscape:pageopacity="0.0"
     inkscape:pagecheckerboard="0"
     inkscape:deskcolor="#d1d1d1"
     inkscape:document-units="mm"
     inkscape:zoom="0.9467888"
     inkscape:cx="524.93228"
     inkscape:cy="320.55724"
     inkscape:window-width="1920"
     inkscape:window-height="1001"
     inkscape:window-x="-9"
     inkscape:window-y="-9"
     inkscape:window-maximized="1"
     inkscape:current-layer="layer1"
     inkscape:pageshadow="2"
     showgrid="false"
     height="50mm"
     width="296mm" /><defs
     id="defs1"><marker
       style="overflow:visible"
       id="Arrow2Send"
       refX="0"
       refY="0"
       orient="auto"
       inkscape:stockid="Arrow2Send"
       inkscape:isstock="true"><path
         transform="matrix(-0.3,0,0,-0.3,0.69,0)"
         d="M 8.7185878,4.0337352 -2.2072895,0.01601326 8.7185884,-4.0017078 c -1.7454984,2.3720609 -1.7354408,5.6174519 -6e-7,8.035443 z"
         style="fill:context-stroke;fill-rule:evenodd;stroke:context-stroke;stroke-width:0.625;stroke-linejoin:round"
         id="path13292" /></marker><marker
       style="overflow:visible"
       id="Arrow2Lend"
       refX="0"
       refY="0"
       orient="auto"
       inkscape:stockid="Arrow2Lend"
       inkscape:isstock="true"><path
         transform="matrix(-1.1,0,0,-1.1,-1.1,0)"
         d="M 8.7185878,4.0337352 -2.2072895,0.01601326 8.7185884,-4.0017078 c -1.7454984,2.3720609 -1.7354408,5.6174519 -6e-7,8.035443 z"
         style="fill:context-stroke;fill-rule:evenodd;stroke:context-stroke;stroke-width:0.625;stroke-linejoin:round"
         id="path13280" /></marker><marker
       style="overflow:visible"
       id="Arrow1Mend"
       refX="0"
       refY="0"
       orient="auto"
       inkscape:stockid="Arrow1Mend"
       inkscape:isstock="true"><path
         transform="matrix(-0.4,0,0,-0.4,-4,0)"
         style="fill:context-stroke;fill-rule:evenodd;stroke:context-stroke;stroke-width:1pt"
         d="M 0,0 5,-5 -12.5,0 5,5 Z"
         id="path13268" /></marker><marker
       style="overflow:visible"
       id="Arrow1Lend"
       refX="0"
       refY="0"
       orient="auto"
       inkscape:stockid="Arrow1Lend"
       inkscape:isstock="true"><path
         transform="matrix(-0.8,0,0,-0.8,-10,0)"
         style="fill:context-stroke;fill-rule:evenodd;stroke:context-stroke;stroke-width:1pt"
         d="M 0,0 5,-5 -12.5,0 5,5 Z"
         id="path13262" /></marker><marker
       style="overflow:visible"
       id="Arrow1Lstart"
       refX="0"
       refY="0"
       orient="auto"
       inkscape:stockid="Arrow1Lstart"
       inkscape:isstock="true"><path
         transform="matrix(0.8,0,0,0.8,10,0)"
         style="fill:context-stroke;fill-rule:evenodd;stroke:context-stroke;stroke-width:1pt"
         d="M 0,0 5,-5 -12.5,0 5,5 Z"
         id="path13259" /></marker><style
       id="style1">
      .st0 {
        fill: url(#Neues_Verlaufsfeld_1);
      }

      .st1 {
        fill: #1d71b8;
      }

      .st2 {
        fill: #3c3c3b;
      }

      .st3 {
        fill: none;
        stroke: #3c3c3b;
        stroke-linecap: round;
        stroke-linejoin: round;
        stroke-width: .26px;
      }
    </style><linearGradient
       id="Neues_Verlaufsfeld_1"
       data-name="Neues Verlaufsfeld 1"
       x1="-.92"
       y1="70.53"
       x2="17.99"
       y2="45.23"
       gradientTransform="rotate(4.27,264.82812,647.82585)"
       gradientUnits="userSpaceOnUse"><stop
         offset="0"
         stop-color="#4258a3"
         id="stop1" /><stop
         offset=".58"
         stop-color="#2aa8e0"
         id="stop2" /><stop
         offset="1"
         stop-color="#8fd0de"
         id="stop3" /></linearGradient></defs><g
     inkscape:label="Ebene 1"
     inkscape:groupmode="layer"
     id="layer1"
     transform="translate(-140.55608,-143.11048)"><ellipse
       style="fill:#eae5f6;fill-opacity:1;stroke:#000000;stroke-width:0.891178;stroke-linecap:round;stroke-linejoin:round;stroke-miterlimit:4;stroke-dasharray:none"
       id="path10166"
       cx="283.56683"
       cy="223.77135"
       rx="64.054405"
       ry="52.340126" /><ellipse
       style="fill:#e5f6f4;fill-opacity:1;stroke:#000000;stroke-width:0.565755;stroke-linecap:round;stroke-linejoin:round;stroke-miterlimit:4;stroke-dasharray:none"
       id="ellipse11224"
       cx="342.45096"
       cy="183.26926"
       rx="40.502831"
       ry="33.359982" /><ellipse
       style="fill:#f6e5f6;fill-opacity:1;stroke:#000000;stroke-width:0.565755;stroke-linecap:round;stroke-linejoin:round;stroke-miterlimit:4;stroke-dasharray:none"
       id="ellipse11220"
       cx="187.85265"
       cy="183.48561"
       rx="40.502831"
       ry="33.359982" /><ellipse
       style="fill:#e7f6e5;fill-opacity:1;stroke:#000000;stroke-width:0.565755;stroke-linecap:round;stroke-linejoin:round;stroke-miterlimit:4;stroke-dasharray:none"
       id="ellipse11222"
       cx="363.78482"
       cy="284.96771"
       rx="40.502831"
       ry="33.359982" /><path
       style="fill:none;stroke:#000000;stroke-width:4;stroke-linecap:butt;stroke-linejoin:miter;stroke-miterlimit:4;stroke-dasharray:none;stroke-opacity:1;marker-end:url(#Arrow2Send)"
       d="m 219.56686,201.7714 27.40834,16.474"
       id="path13257"
       sodipodi:nodetypes="cc" /><path
       style="fill:none;stroke:#000000;stroke-width:4;stroke-linecap:butt;stroke-linejoin:miter;stroke-miterlimit:4;stroke-dasharray:none;stroke-opacity:1;marker-end:url(#Arrow2Send)"
       d="m 321.92102,245.69697 11.18222,14.65285"
       id="path14107"
       sodipodi:nodetypes="cc" /><path
       style="fill:none;stroke:#000000;stroke-width:4;stroke-linecap:butt;stroke-linejoin:miter;stroke-miterlimit:4;stroke-dasharray:none;stroke-opacity:1;marker-end:url(#Arrow2Send)"
       d="m 282.06001,194.353 c 1.97781,-7.30269 6.14958,-10.97692 9.47315,-12.80116 2.66871,-1.46481 7.80786,-3.10835 7.80786,-3.10835"
       id="path14313"
       sodipodi:nodetypes="csc" /><path
       style="fill:none;stroke:#000000;stroke-width:4;stroke-linecap:butt;stroke-linejoin:miter;stroke-miterlimit:4;stroke-dasharray:none;stroke-opacity:1;marker-end:url(#Arrow2Send)"
       d="m 346.5897,215.10644 c -2.70062,7.06737 -7.22003,10.30443 -10.70988,11.78596 -2.80222,1.18963 -8.08035,2.30918 -8.08035,2.30918"
       id="path14646"
       sodipodi:nodetypes="csc" /><g
       id="g1"
       transform="matrix(0.45088386,0,0,0.45088386,250.58794,194.97034)"><g
         id="g41"><path
           class="st1"
           d="m 87.71,92.49 c -0.39,0 -0.75,-0.07 -1.08,-0.2 C 86.3,92.15 86.01,91.96 85.77,91.71 85.53,91.46 85.34,91.16 85.2,90.82 85.06,90.48 85,90.11 85,89.7 c 0,-0.41 0.07,-0.78 0.2,-1.12 0.13,-0.34 0.33,-0.64 0.57,-0.89 0.25,-0.25 0.53,-0.45 0.87,-0.58 0.33,-0.14 0.69,-0.2 1.08,-0.2 0.43,0 0.83,0.08 1.18,0.24 0.35,0.16 0.65,0.4 0.89,0.71 l -0.75,0.74 c -0.17,-0.21 -0.36,-0.37 -0.57,-0.48 -0.21,-0.11 -0.44,-0.16 -0.69,-0.16 -0.23,0 -0.45,0.04 -0.64,0.13 -0.2,0.08 -0.36,0.2 -0.51,0.36 -0.14,0.15 -0.25,0.34 -0.33,0.55 -0.08,0.21 -0.12,0.45 -0.12,0.7 0,0.25 0.04,0.49 0.12,0.7 0.08,0.21 0.19,0.39 0.33,0.55 0.14,0.15 0.31,0.27 0.51,0.36 0.2,0.09 0.41,0.13 0.64,0.13 0.25,0 0.48,-0.06 0.69,-0.17 0.21,-0.11 0.4,-0.27 0.57,-0.48 l 0.75,0.74 c -0.24,0.31 -0.53,0.55 -0.89,0.72 -0.35,0.17 -0.75,0.25 -1.19,0.25 z"
           id="path3" /><path
           class="st2"
           d="m 93.11,92.49 c -0.4,0 -0.76,-0.07 -1.09,-0.21 -0.33,-0.14 -0.63,-0.33 -0.87,-0.59 -0.25,-0.25 -0.44,-0.55 -0.58,-0.89 -0.14,-0.34 -0.2,-0.71 -0.2,-1.11 0,-0.4 0.07,-0.78 0.2,-1.12 0.13,-0.34 0.33,-0.63 0.58,-0.88 0.25,-0.25 0.54,-0.45 0.87,-0.59 0.33,-0.14 0.69,-0.21 1.09,-0.21 0.4,0 0.76,0.07 1.09,0.2 0.33,0.14 0.62,0.33 0.87,0.58 0.25,0.25 0.44,0.55 0.58,0.89 0.14,0.34 0.2,0.71 0.2,1.12 0,0.41 -0.07,0.77 -0.2,1.12 -0.14,0.34 -0.33,0.64 -0.58,0.89 -0.25,0.25 -0.54,0.45 -0.87,0.58 -0.33,0.14 -0.69,0.2 -1.08,0.2 z M 93.1,91.43 c 0.22,0 0.43,-0.04 0.62,-0.13 0.19,-0.08 0.35,-0.21 0.5,-0.36 0.15,-0.15 0.25,-0.34 0.33,-0.55 0.08,-0.21 0.12,-0.44 0.12,-0.7 0,-0.26 -0.04,-0.49 -0.12,-0.7 -0.08,-0.21 -0.19,-0.39 -0.33,-0.55 -0.14,-0.16 -0.31,-0.28 -0.5,-0.36 -0.19,-0.08 -0.39,-0.13 -0.62,-0.13 -0.23,0 -0.43,0.04 -0.62,0.13 -0.19,0.08 -0.36,0.21 -0.5,0.36 -0.14,0.15 -0.25,0.34 -0.33,0.55 -0.08,0.21 -0.12,0.44 -0.12,0.7 0,0.26 0.04,0.49 0.12,0.7 0.08,0.21 0.19,0.39 0.33,0.55 0.14,0.16 0.31,0.28 0.5,0.36 0.19,0.09 0.4,0.13 0.62,0.13 z"
           id="path4" /><path
           class="st2"
           d="m 96.94,92.39 v -5.41 h 0.96 l 2.13,3.82 h -0.51 l 2.09,-3.82 h 0.97 v 5.41 h -1.08 v -3.61 c 0,0 0.2,0 0.2,0 l -1.69,3.03 H 99.5 l -1.71,-3.03 h 0.24 v 3.61 h -1.08 z"
           id="path5" /><path
           class="st2"
           d="m 104,92.39 v -5.41 h 2.17 c 0.45,0 0.83,0.08 1.16,0.24 0.32,0.16 0.57,0.38 0.75,0.68 0.18,0.3 0.26,0.64 0.26,1.04 0,0.4 -0.09,0.76 -0.26,1.05 -0.17,0.29 -0.43,0.52 -0.75,0.68 -0.32,0.16 -0.71,0.24 -1.16,0.24 h -1.53 l 0.53,-0.56 V 92.4 H 104 Z m 1.17,-1.91 -0.53,-0.59 h 1.47 c 0.35,0 0.62,-0.08 0.8,-0.25 0.18,-0.17 0.27,-0.4 0.27,-0.7 0,-0.3 -0.09,-0.53 -0.27,-0.69 -0.18,-0.16 -0.45,-0.24 -0.8,-0.24 h -1.47 l 0.53,-0.59 v 3.07 z"
           id="path6" /><path
           class="st2"
           d="m 109.4,92.39 v -5.41 h 2.17 c 0.45,0 0.83,0.08 1.16,0.24 0.32,0.16 0.57,0.38 0.75,0.68 0.18,0.3 0.26,0.64 0.26,1.04 0,0.4 -0.09,0.76 -0.26,1.05 -0.17,0.29 -0.43,0.51 -0.75,0.66 -0.32,0.15 -0.71,0.23 -1.16,0.23 h -1.53 l 0.53,-0.54 v 2.05 z m 1.16,-1.91 -0.53,-0.59 h 1.47 c 0.35,0 0.62,-0.08 0.8,-0.25 0.18,-0.17 0.27,-0.4 0.27,-0.7 0,-0.3 -0.09,-0.53 -0.27,-0.69 -0.18,-0.16 -0.45,-0.24 -0.8,-0.24 h -1.47 l 0.53,-0.59 v 3.07 z m 2.03,1.91 -1.26,-1.96 h 1.24 l 1.26,1.96 z"
           id="path7" /><path
           class="st2"
           d="m 116.03,91.39 h 2.73 v 1 h -3.88 v -5.41 h 3.78 v 1 h -2.63 v 3.4 z m -0.08,-2.23 h 2.41 v 0.98 h -2.41 z"
           id="path8" /><path
           class="st2"
           d="m 121.08,92.39 h -1.17 v -5.41 h 1.17 z m 2.35,-2.21 h -2.45 v -1.06 h 2.45 z m -0.08,-3.2 h 1.16 v 5.41 h -1.16 z"
           id="path9" /><path
           class="st2"
           d="m 127.07,91.39 h 2.73 v 1 h -3.88 v -5.41 h 3.78 v 1 h -2.63 v 3.4 z m -0.08,-2.23 h 2.41 v 0.98 h -2.41 z"
           id="path10" /><path
           class="st2"
           d="m 130.95,92.39 v -5.41 h 0.96 l 2.95,3.89 h -0.46 v -3.89 h 1.14 v 5.41 h -0.96 l -2.95,-3.89 h 0.46 v 3.89 z"
           id="path11" /><path
           class="st2"
           d="m 138.61,92.49 c -0.4,0 -0.79,-0.06 -1.16,-0.17 -0.37,-0.12 -0.67,-0.27 -0.89,-0.45 l 0.39,-0.94 c 0.21,0.16 0.46,0.3 0.76,0.41 0.3,0.11 0.59,0.16 0.89,0.16 0.23,0 0.41,-0.03 0.55,-0.08 0.14,-0.05 0.24,-0.12 0.31,-0.2 0.07,-0.08 0.1,-0.18 0.1,-0.3 0,-0.14 -0.05,-0.26 -0.16,-0.34 -0.11,-0.08 -0.24,-0.15 -0.42,-0.21 -0.17,-0.05 -0.36,-0.11 -0.57,-0.15 -0.21,-0.05 -0.41,-0.11 -0.62,-0.18 -0.21,-0.07 -0.4,-0.16 -0.57,-0.28 -0.17,-0.12 -0.31,-0.27 -0.42,-0.46 -0.1,-0.19 -0.15,-0.42 -0.15,-0.71 0,-0.31 0.08,-0.59 0.23,-0.85 0.15,-0.25 0.39,-0.46 0.7,-0.61 0.31,-0.15 0.7,-0.23 1.18,-0.23 0.32,0 0.63,0.04 0.93,0.12 0.31,0.08 0.58,0.2 0.8,0.36 l -0.36,0.94 c -0.22,-0.14 -0.46,-0.24 -0.69,-0.31 -0.23,-0.07 -0.47,-0.1 -0.69,-0.1 -0.22,0 -0.41,0.03 -0.55,0.08 -0.14,0.05 -0.24,0.13 -0.3,0.22 -0.06,0.09 -0.1,0.2 -0.1,0.31 0,0.14 0.05,0.26 0.16,0.35 0.1,0.09 0.24,0.16 0.41,0.2 0.17,0.05 0.36,0.1 0.57,0.15 0.21,0.05 0.42,0.11 0.62,0.18 0.2,0.07 0.39,0.16 0.57,0.27 0.17,0.11 0.31,0.26 0.42,0.45 0.11,0.19 0.16,0.42 0.16,0.7 0,0.3 -0.08,0.58 -0.23,0.83 -0.15,0.25 -0.39,0.46 -0.7,0.61 -0.31,0.15 -0.71,0.23 -1.18,0.23 z"
           id="path12" /><path
           class="st2"
           d="m 141.75,92.39 v -5.41 h 1.17 v 5.41 z"
           id="path13" /><path
           class="st2"
           d="m 145.8,92.39 -2.17,-5.41 h 1.26 l 1.89,4.79 h -0.74 l 1.92,-4.79 h 1.15 l -2.17,5.41 z"
           id="path14" /><path
           class="st2"
           d="m 150.91,91.39 h 2.73 v 1 h -3.88 v -5.41 h 3.78 v 1 h -2.63 v 3.4 z m -0.09,-2.23 h 2.41 v 0.98 h -2.41 z"
           id="path15" /><path
           class="st1"
           d="m 87.71,100.66 c -0.39,0 -0.75,-0.07 -1.08,-0.2 -0.33,-0.14 -0.62,-0.33 -0.86,-0.58 C 85.53,99.63 85.34,99.33 85.2,98.99 85.06,98.65 85,98.28 85,97.87 c 0,-0.41 0.07,-0.78 0.2,-1.12 0.13,-0.34 0.33,-0.64 0.57,-0.89 0.25,-0.25 0.53,-0.45 0.87,-0.58 0.33,-0.14 0.69,-0.2 1.08,-0.2 0.43,0 0.83,0.08 1.18,0.24 0.35,0.16 0.65,0.4 0.89,0.71 l -0.75,0.74 c -0.17,-0.21 -0.36,-0.37 -0.57,-0.48 -0.21,-0.11 -0.44,-0.16 -0.69,-0.16 -0.23,0 -0.45,0.04 -0.64,0.13 -0.2,0.08 -0.36,0.2 -0.51,0.36 -0.14,0.15 -0.25,0.34 -0.33,0.55 -0.08,0.21 -0.12,0.45 -0.12,0.7 0,0.25 0.04,0.49 0.12,0.7 0.08,0.21 0.19,0.39 0.33,0.55 0.14,0.15 0.31,0.27 0.51,0.36 0.2,0.09 0.41,0.13 0.64,0.13 0.25,0 0.48,-0.06 0.69,-0.17 0.21,-0.11 0.4,-0.27 0.57,-0.48 l 0.75,0.74 c -0.24,0.31 -0.53,0.55 -0.89,0.72 -0.35,0.17 -0.75,0.25 -1.19,0.25 z"
           id="path16" /><path
           class="st2"
           d="m 93.11,100.66 c -0.4,0 -0.76,-0.07 -1.09,-0.21 -0.33,-0.14 -0.63,-0.33 -0.87,-0.59 -0.25,-0.25 -0.44,-0.55 -0.58,-0.89 -0.14,-0.34 -0.2,-0.71 -0.2,-1.11 0,-0.4 0.07,-0.78 0.2,-1.12 0.13,-0.34 0.33,-0.63 0.58,-0.88 0.25,-0.25 0.54,-0.45 0.87,-0.59 0.33,-0.14 0.69,-0.21 1.09,-0.21 0.4,0 0.76,0.07 1.09,0.2 0.33,0.14 0.62,0.33 0.87,0.58 0.25,0.25 0.44,0.55 0.58,0.89 0.14,0.34 0.2,0.71 0.2,1.12 0,0.41 -0.07,0.77 -0.2,1.12 -0.14,0.34 -0.33,0.64 -0.58,0.89 -0.25,0.25 -0.54,0.45 -0.87,0.58 -0.33,0.14 -0.69,0.2 -1.08,0.2 z M 93.1,99.6 c 0.22,0 0.43,-0.04 0.62,-0.13 0.19,-0.08 0.35,-0.21 0.5,-0.36 0.15,-0.15 0.25,-0.34 0.33,-0.55 0.08,-0.21 0.12,-0.44 0.12,-0.7 0,-0.26 -0.04,-0.49 -0.12,-0.7 -0.08,-0.21 -0.19,-0.39 -0.33,-0.55 -0.14,-0.16 -0.31,-0.28 -0.5,-0.36 -0.19,-0.08 -0.39,-0.13 -0.62,-0.13 -0.23,0 -0.43,0.04 -0.62,0.13 -0.19,0.08 -0.36,0.21 -0.5,0.36 -0.14,0.15 -0.25,0.34 -0.33,0.55 -0.08,0.21 -0.12,0.44 -0.12,0.7 0,0.26 0.04,0.49 0.12,0.7 0.08,0.21 0.19,0.39 0.33,0.55 0.14,0.16 0.31,0.28 0.5,0.36 0.19,0.09 0.4,0.13 0.62,0.13 z"
           id="path17" /><path
           class="st2"
           d="m 96.94,100.57 v -5.41 h 0.96 l 2.13,3.82 h -0.51 l 2.09,-3.82 h 0.97 v 5.41 h -1.08 v -3.61 c 0,0 0.2,0 0.2,0 l -1.69,3.03 H 99.5 l -1.71,-3.03 h 0.24 v 3.61 h -1.08 z"
           id="path18" /><path
           class="st2"
           d="m 104,100.57 v -5.41 h 2.17 c 0.45,0 0.83,0.08 1.16,0.24 0.32,0.16 0.57,0.38 0.75,0.68 0.18,0.3 0.26,0.64 0.26,1.04 0,0.4 -0.09,0.76 -0.26,1.05 -0.17,0.29 -0.43,0.52 -0.75,0.68 -0.32,0.16 -0.71,0.24 -1.16,0.24 h -1.53 l 0.53,-0.56 v 2.05 H 104 Z m 1.17,-1.92 -0.53,-0.59 h 1.47 c 0.35,0 0.62,-0.08 0.8,-0.25 0.18,-0.17 0.27,-0.4 0.27,-0.7 0,-0.3 -0.09,-0.53 -0.27,-0.69 -0.18,-0.16 -0.45,-0.24 -0.8,-0.24 h -1.47 l 0.53,-0.59 v 3.07 z"
           id="path19" /><path
           class="st2"
           d="m 111.6,100.66 c -0.71,0 -1.27,-0.21 -1.67,-0.64 -0.4,-0.43 -0.6,-1.04 -0.6,-1.84 v -3.02 h 1.17 v 2.99 c 0,0.51 0.1,0.88 0.29,1.11 0.2,0.23 0.47,0.34 0.82,0.34 0.35,0 0.63,-0.11 0.82,-0.34 0.2,-0.23 0.29,-0.6 0.29,-1.11 v -2.99 h 1.14 v 3.02 c 0,0.8 -0.2,1.41 -0.6,1.84 -0.4,0.43 -0.95,0.64 -1.66,0.64 z"
           id="path20" /><path
           class="st2"
           d="m 116.19,100.57 v -4.39 h -1.6 v -1.02 h 4.36 v 1.02 h -1.6 v 4.39 z"
           id="path21" /><path
           class="st2"
           d="m 118.9,100.57 2.22,-5.41 h 1.14 l 2.25,5.41 h -1.22 l -1.84,-4.77 h 0.46 l -1.84,4.77 h -1.19 z m 1.12,-1.16 0.29,-0.95 h 2.59 l 0.3,0.95 z"
           id="path22" /><path
           class="st2"
           d="m 126.05,100.57 v -4.39 h -1.6 v -1.02 h 4.36 v 1.02 h -1.6 v 4.39 z"
           id="path23" /><path
           class="st2"
           d="m 129.66,100.57 v -5.41 h 1.17 v 5.41 z"
           id="path24" /><path
           class="st2"
           d="m 134.67,100.66 c -0.4,0 -0.76,-0.07 -1.09,-0.21 -0.33,-0.14 -0.63,-0.33 -0.87,-0.59 -0.25,-0.25 -0.44,-0.55 -0.58,-0.89 -0.14,-0.34 -0.2,-0.71 -0.2,-1.11 0,-0.4 0.07,-0.78 0.2,-1.12 0.13,-0.34 0.33,-0.63 0.58,-0.88 0.25,-0.25 0.54,-0.45 0.87,-0.59 0.33,-0.14 0.69,-0.21 1.09,-0.21 0.4,0 0.76,0.07 1.09,0.2 0.33,0.14 0.62,0.33 0.87,0.58 0.25,0.25 0.44,0.55 0.58,0.89 0.14,0.34 0.2,0.71 0.2,1.12 0,0.41 -0.07,0.77 -0.2,1.12 -0.14,0.34 -0.33,0.64 -0.58,0.89 -0.25,0.25 -0.54,0.45 -0.87,0.58 -0.33,0.14 -0.69,0.2 -1.08,0.2 z m -0.01,-1.06 c 0.22,0 0.43,-0.04 0.62,-0.13 0.19,-0.08 0.35,-0.21 0.5,-0.36 0.15,-0.15 0.25,-0.34 0.33,-0.55 0.08,-0.21 0.12,-0.44 0.12,-0.7 0,-0.26 -0.04,-0.49 -0.12,-0.7 -0.08,-0.21 -0.19,-0.39 -0.33,-0.55 -0.14,-0.16 -0.31,-0.28 -0.5,-0.36 -0.19,-0.08 -0.39,-0.13 -0.62,-0.13 -0.23,0 -0.43,0.04 -0.62,0.13 -0.19,0.08 -0.36,0.21 -0.5,0.36 -0.14,0.15 -0.25,0.34 -0.33,0.55 -0.08,0.21 -0.12,0.44 -0.12,0.7 0,0.26 0.04,0.49 0.12,0.7 0.08,0.21 0.19,0.39 0.33,0.55 0.14,0.16 0.31,0.28 0.5,0.36 0.19,0.09 0.4,0.13 0.62,0.13 z"
           id="path25" /><path
           class="st2"
           d="m 138.5,100.57 v -5.41 h 0.96 l 2.95,3.89 h -0.46 v -3.89 h 1.14 v 5.41 h -0.96 l -2.95,-3.89 h 0.46 v 3.89 z"
           id="path26" /><path
           class="st2"
           d="m 143.85,100.57 2.22,-5.41 h 1.14 l 2.25,5.41 h -1.22 L 146.4,95.8 h 0.46 l -1.84,4.77 h -1.19 z m 1.13,-1.16 0.29,-0.95 h 2.59 l 0.3,0.95 z"
           id="path27" /><path
           class="st2"
           d="m 150.22,100.57 v -5.41 h 1.17 v 4.39 h 2.5 v 1.02 h -3.66 z"
           id="path28" /><path
           class="st1"
           d="m 87.71,108.84 c -0.39,0 -0.75,-0.07 -1.08,-0.2 -0.33,-0.14 -0.62,-0.33 -0.86,-0.58 -0.24,-0.25 -0.43,-0.55 -0.57,-0.89 -0.14,-0.34 -0.2,-0.71 -0.2,-1.12 0,-0.41 0.07,-0.78 0.2,-1.12 0.13,-0.34 0.33,-0.64 0.57,-0.89 0.25,-0.25 0.53,-0.45 0.87,-0.58 0.33,-0.14 0.69,-0.2 1.08,-0.2 0.43,0 0.83,0.08 1.18,0.24 0.35,0.16 0.65,0.4 0.89,0.71 l -0.75,0.74 c -0.17,-0.21 -0.36,-0.37 -0.57,-0.48 -0.21,-0.11 -0.44,-0.16 -0.69,-0.16 -0.23,0 -0.45,0.04 -0.64,0.13 -0.2,0.08 -0.36,0.2 -0.51,0.36 -0.14,0.15 -0.25,0.34 -0.33,0.55 -0.08,0.21 -0.12,0.45 -0.12,0.7 0,0.25 0.04,0.49 0.12,0.7 0.08,0.21 0.19,0.39 0.33,0.55 0.14,0.15 0.31,0.27 0.51,0.36 0.2,0.09 0.41,0.13 0.64,0.13 0.25,0 0.48,-0.06 0.69,-0.17 0.21,-0.11 0.4,-0.27 0.57,-0.48 l 0.75,0.74 c -0.24,0.31 -0.53,0.55 -0.89,0.72 -0.35,0.17 -0.75,0.25 -1.19,0.25 z"
           id="path29" /><path
           class="st2"
           d="m 93.11,108.84 c -0.4,0 -0.76,-0.07 -1.09,-0.21 -0.33,-0.14 -0.63,-0.33 -0.87,-0.59 -0.25,-0.25 -0.44,-0.55 -0.58,-0.89 -0.14,-0.34 -0.2,-0.71 -0.2,-1.11 0,-0.4 0.07,-0.78 0.2,-1.12 0.13,-0.34 0.33,-0.63 0.58,-0.88 0.25,-0.25 0.54,-0.45 0.87,-0.59 0.33,-0.14 0.69,-0.21 1.09,-0.21 0.4,0 0.76,0.07 1.09,0.2 0.33,0.14 0.62,0.33 0.87,0.58 0.25,0.25 0.44,0.55 0.58,0.89 0.14,0.34 0.2,0.71 0.2,1.12 0,0.41 -0.07,0.77 -0.2,1.12 -0.14,0.34 -0.33,0.64 -0.58,0.89 -0.25,0.25 -0.54,0.45 -0.87,0.58 -0.33,0.14 -0.69,0.2 -1.08,0.2 z m -0.01,-1.06 c 0.22,0 0.43,-0.04 0.62,-0.13 0.19,-0.08 0.35,-0.21 0.5,-0.36 0.15,-0.15 0.25,-0.34 0.33,-0.55 0.08,-0.21 0.12,-0.44 0.12,-0.7 0,-0.26 -0.04,-0.49 -0.12,-0.7 -0.08,-0.21 -0.19,-0.39 -0.33,-0.55 -0.14,-0.16 -0.31,-0.28 -0.5,-0.36 -0.19,-0.08 -0.39,-0.13 -0.62,-0.13 -0.23,0 -0.43,0.04 -0.62,0.13 -0.19,0.08 -0.36,0.21 -0.5,0.36 -0.14,0.15 -0.25,0.34 -0.33,0.55 -0.08,0.21 -0.12,0.44 -0.12,0.7 0,0.26 0.04,0.49 0.12,0.7 0.08,0.21 0.19,0.39 0.33,0.55 0.14,0.16 0.31,0.28 0.5,0.36 0.19,0.09 0.4,0.13 0.62,0.13 z"
           id="path30" /><path
           class="st2"
           d="m 96.94,108.74 v -5.41 h 0.96 l 2.13,3.82 h -0.51 l 2.09,-3.82 h 0.97 v 5.41 h -1.08 v -3.61 c 0,0 0.2,0 0.2,0 l -1.69,3.03 H 99.5 l -1.71,-3.03 h 0.24 v 3.61 h -1.08 z"
           id="path31" /><path
           class="st2"
           d="m 104,108.74 v -5.41 h 0.96 l 2.13,3.82 h -0.51 l 2.09,-3.82 h 0.97 v 5.41 h -1.08 v -3.61 c 0,0 0.2,0 0.2,0 l -1.69,3.03 h -0.51 l -1.71,-3.03 h 0.24 v 3.61 h -1.08 z"
           id="path32" /><path
           class="st2"
           d="m 113.29,108.84 c -0.71,0 -1.27,-0.21 -1.67,-0.64 -0.4,-0.43 -0.6,-1.04 -0.6,-1.84 v -3.02 h 1.17 v 2.99 c 0,0.51 0.1,0.88 0.29,1.11 0.2,0.23 0.47,0.34 0.82,0.34 0.35,0 0.63,-0.11 0.82,-0.34 0.2,-0.23 0.29,-0.6 0.29,-1.11 v -2.99 h 1.14 v 3.02 c 0,0.8 -0.2,1.41 -0.6,1.84 -0.4,0.43 -0.95,0.64 -1.66,0.64 z"
           id="path33" /><path
           class="st2"
           d="m 116.93,108.74 v -5.41 h 0.96 l 2.95,3.89 h -0.46 v -3.89 h 1.14 v 5.41 h -0.96 l -2.95,-3.89 h 0.46 v 3.89 z"
           id="path34" /><path
           class="st2"
           d="m 122.94,108.74 v -5.41 h 1.17 v 5.41 z"
           id="path35" /><path
           class="st2"
           d="m 126.55,108.74 v -4.39 h -1.6 v -1.02 h 4.36 v 1.02 h -1.6 v 4.39 z"
           id="path36" /><path
           class="st2"
           d="m 131.31,108.74 v -2.21 l 0.26,0.76 -2.21,-3.96 h 1.24 l 1.69,3.03 h -0.71 l 1.7,-3.03 h 1.13 l -2.2,3.96 0.26,-0.76 v 2.21 h -1.17 z"
           id="path37" /><path
           class="st1"
           d="m 87.71,117.01 c -0.39,0 -0.75,-0.07 -1.08,-0.2 -0.33,-0.14 -0.62,-0.33 -0.86,-0.58 -0.24,-0.25 -0.43,-0.55 -0.57,-0.89 -0.14,-0.34 -0.2,-0.71 -0.2,-1.12 0,-0.41 0.07,-0.78 0.2,-1.12 0.13,-0.34 0.33,-0.64 0.57,-0.89 0.25,-0.25 0.53,-0.45 0.87,-0.58 0.33,-0.14 0.69,-0.2 1.08,-0.2 0.43,0 0.83,0.08 1.18,0.24 0.35,0.16 0.65,0.4 0.89,0.71 l -0.75,0.74 c -0.17,-0.21 -0.36,-0.37 -0.57,-0.48 -0.21,-0.11 -0.44,-0.16 -0.69,-0.16 -0.23,0 -0.45,0.04 -0.64,0.13 -0.2,0.08 -0.36,0.2 -0.51,0.36 -0.14,0.15 -0.25,0.34 -0.33,0.55 -0.08,0.21 -0.12,0.45 -0.12,0.7 0,0.25 0.04,0.49 0.12,0.7 0.08,0.21 0.19,0.39 0.33,0.55 0.14,0.15 0.31,0.27 0.51,0.36 0.2,0.09 0.41,0.13 0.64,0.13 0.25,0 0.48,-0.06 0.69,-0.17 0.21,-0.11 0.4,-0.27 0.57,-0.48 l 0.75,0.74 c -0.24,0.31 -0.53,0.55 -0.89,0.72 -0.35,0.17 -0.75,0.25 -1.19,0.25 z"
           id="path38" /><path
           class="st2"
           d="m 93.11,117.01 c -0.4,0 -0.76,-0.07 -1.09,-0.21 -0.33,-0.14 -0.63,-0.33 -0.87,-0.59 -0.25,-0.25 -0.44,-0.55 -0.58,-0.89 -0.14,-0.34 -0.2,-0.71 -0.2,-1.11 0,-0.4 0.07,-0.78 0.2,-1.12 0.13,-0.34 0.33,-0.63 0.58,-0.88 0.25,-0.25 0.54,-0.45 0.87,-0.59 0.33,-0.14 0.69,-0.21 1.09,-0.21 0.4,0 0.76,0.07 1.09,0.2 0.33,0.14 0.62,0.33 0.87,0.58 0.25,0.25 0.44,0.55 0.58,0.89 0.14,0.34 0.2,0.71 0.2,1.12 0,0.41 -0.07,0.77 -0.2,1.12 -0.14,0.34 -0.33,0.64 -0.58,0.89 -0.25,0.25 -0.54,0.45 -0.87,0.58 -0.33,0.14 -0.69,0.2 -1.08,0.2 z m -0.01,-1.06 c 0.22,0 0.43,-0.04 0.62,-0.13 0.19,-0.08 0.35,-0.21 0.5,-0.36 0.15,-0.15 0.25,-0.34 0.33,-0.55 0.08,-0.21 0.12,-0.44 0.12,-0.7 0,-0.26 -0.04,-0.49 -0.12,-0.7 -0.08,-0.21 -0.19,-0.39 -0.33,-0.55 -0.14,-0.16 -0.31,-0.28 -0.5,-0.36 -0.19,-0.08 -0.39,-0.13 -0.62,-0.13 -0.23,0 -0.43,0.04 -0.62,0.13 -0.19,0.08 -0.36,0.21 -0.5,0.36 -0.14,0.15 -0.25,0.34 -0.33,0.55 -0.08,0.21 -0.12,0.44 -0.12,0.7 0,0.26 0.04,0.49 0.12,0.7 0.08,0.21 0.19,0.39 0.33,0.55 0.14,0.16 0.31,0.28 0.5,0.36 0.19,0.09 0.4,0.13 0.62,0.13 z"
           id="path39" /><path
           class="st2"
           d="m 96.94,116.92 v -5.41 h 2.27 c 0.54,0 1.02,0.11 1.44,0.34 0.41,0.22 0.74,0.54 0.97,0.94 0.23,0.4 0.35,0.88 0.35,1.43 0,0.55 -0.12,1.02 -0.35,1.43 -0.23,0.4 -0.56,0.72 -0.97,0.94 -0.42,0.22 -0.89,0.34 -1.44,0.34 h -2.27 z m 1.17,-1.02 h 1.05 c 0.33,0 0.62,-0.07 0.87,-0.2 0.25,-0.14 0.44,-0.33 0.57,-0.59 0.14,-0.25 0.2,-0.55 0.2,-0.89 0,-0.34 -0.07,-0.64 -0.2,-0.9 -0.14,-0.25 -0.33,-0.45 -0.57,-0.58 -0.25,-0.14 -0.54,-0.2 -0.87,-0.2 h -1.05 v 3.37 z"
           id="path40" /><path
           class="st2"
           d="m 104.23,115.91 h 2.73 v 1 h -3.88 v -5.41 h 3.78 v 1 h -2.63 v 3.4 z m -0.08,-2.23 h 2.41 v 0.98 h -2.41 z"
           id="path41" /></g><g
         id="g42"><polygon
           class="st1"
           points="64.07,72.4 85.2,72.4 85.2,80.34 96.64,80.34 96.64,72.4 102.81,72.4 102.81,62.24 96.64,62.24 96.64,56.03 85.55,56.03 85.55,62.24 77.11,62.24 94.09,38.84 81.88,38.84 64.07,62.5 "
           id="polygon41" /><path
           class="st1"
           d="m 134.52,70.2 c -1.62,0.83 -3.4,1.24 -5.34,1.24 -1.7,0 -3.26,-0.28 -4.68,-0.83 -1.42,-0.55 -2.64,-1.35 -3.65,-2.4 -1.01,-1.05 -1.8,-2.3 -2.37,-3.76 -0.57,-1.46 -0.86,-3.08 -0.86,-4.86 0,-1.78 0.29,-3.4 0.86,-4.86 0.57,-1.46 1.36,-2.72 2.37,-3.76 1.01,-1.05 2.22,-1.85 3.65,-2.4 1.42,-0.55 2.98,-0.83 4.68,-0.83 1.94,0 3.71,0.42 5.34,1.25 1.62,0.83 3.1,2.04 4.45,3.62 l 7.47,-6.76 c -2.02,-2.57 -4.54,-4.52 -7.56,-5.84 -3.02,-1.32 -6.45,-1.99 -10.29,-1.99 -3.28,0 -6.3,0.52 -9.07,1.57 -2.77,1.05 -5.18,2.53 -7.23,4.45 -2.06,1.92 -3.66,4.2 -4.8,6.85 -1.15,2.65 -1.72,5.55 -1.72,8.71 0,3.16 0.57,6.07 1.72,8.72 1.15,2.65 2.75,4.93 4.8,6.85 2.06,1.92 4.47,3.4 7.23,4.45 2.77,1.05 5.79,1.57 9.07,1.57 3.83,0 7.26,-0.67 10.29,-2.02 3.02,-1.34 5.54,-3.3 7.56,-5.87 l -7.47,-6.76 c -1.34,1.62 -2.83,2.85 -4.45,3.68 z"
           id="path42" /></g><path
         class="st2"
         d="M 54.86,8.32 C 22.12,8.32 9.98,36.71 9.48,37.73 l -1.17,2.38 1.22,2.36 C 10.09,43.56 21,71.14 58.09,72.41 V 62.31 C 31.7,60.24 23.48,45.68 19.76,40.07 c 3.52,-5.11 14.42,-21.72 35.1,-21.72 15.98,0 24.74,9.92 28.04,14.72 L 95.13,32.99 C 94.8,32.03 85.77,8.31 54.86,8.31 Z"
         id="path43" /><path
         class="st0"
         d="m 67.7,29.57 -10.22,-6.92 -12.3,1.22 -8.63,8.79 -0.91,12.25 7.22,9.98 11.98,3.03 11.14,-5.33 5.08,-11.2 -3.36,-11.83 z m -9.49,15.49 -4.45,2.13 -4.79,-1.21 -2.89,-3.99 0.37,-4.9 3.45,-3.52 4.92,-0.49 4.09,2.77 1.34,4.73 -2.03,4.48 z"
         id="path44"
         style="fill:url(#Neues_Verlaufsfeld_1)" /><g
         id="figure_1"><g
           id="axes_1"><g
             id="patch_2"><path
               class="st3"
               d="m 62.92,44.41 1.34,-7.07 -4.05,3.33 z"
               id="path45" /></g><g
             id="patch_3"><path
               class="st3"
               d="m 50.82,51.61 -7.57,-4.66 -0.42,8.01 7.99,-3.36 z"
               id="path46" /></g><g
             id="patch_4"><path
               class="st3"
               d="m 46.4,37.17 -5.36,2.04 5,2.86 0.37,-4.9 z"
               id="path47" /></g><g
             id="patch_5"><path
               class="st3"
               d="m 51.87,28.32 -7.38,3.56 5.36,1.77 z"
               id="path48" /></g><g
             id="patch_6"><path
               class="st3"
               d="m 67.66,29.65 -10.22,-6.92 2.38,8.03 z"
               id="path49" /></g><g
             id="patch_7"><path
               class="st3"
               d="m 64.26,37.33 -5.4,-1.4 1.34,4.73 4.05,-3.33 z"
               id="path50" /></g><g
             id="patch_8"><path
               class="st3"
               d="m 67.66,29.65 -3.4,7.69 6.76,4.14 z"
               id="path51" /></g><g
             id="patch_9"><path
               class="st3"
               d="m 59.82,30.75 -5.05,2.41 4.09,2.77 z"
               id="path52" /></g><g
             id="patch_10"><path
               class="st3"
               d="m 44.5,31.89 1.91,5.29 3.45,-3.52 z"
               id="path53" /></g><g
             id="patch_11"><path
               class="st3"
               d="m 51.87,28.32 7.95,2.43 -2.38,-8.03 z"
               id="path54" /></g><g
             id="patch_12"><path
               class="st3"
               d="m 41.04,39.21 2.2,7.74 2.79,-4.88 -5,-2.86 z"
               id="path55" /></g><g
             id="patch_13"><path
               class="st3"
               d="m 36.52,32.74 7.98,-0.85 0.64,-7.94 -8.63,8.79 z"
               id="path56" /></g><g
             id="patch_14"><path
               class="st3"
               d="m 43.24,46.95 5.68,-0.89 -2.89,-3.99 z"
               id="path57" /></g><g
             id="patch_15"><path
               class="st3"
               d="m 58.4,50.37 -0.23,-5.23 -4.45,2.13 z"
               id="path58" /></g><g
             id="patch_16"><path
               class="st3"
               d="m 42.83,54.96 0.42,-8.01 -7.64,-1.96 7.22,9.98 z"
               id="path59" /></g><g
             id="patch_17"><path
               class="st3"
               d="m 54.81,58 -3.99,-6.39 -7.99,3.36 z"
               id="path60" /></g><g
             id="patch_18"><path
               class="st3"
               d="m 62.92,44.41 -2.71,-3.74 -2.03,4.48 z"
               id="path61" /></g><g
             id="patch_19"><path
               class="st3"
               d="m 65.94,52.67 -7.54,-2.3 -3.59,7.62 11.14,-5.33 z"
               id="path62" /></g><g
             id="patch_20"><path
               class="st3"
               d="m 62.92,44.41 3.03,8.26 5.08,-11.2 -8.1,2.93 z"
               id="path63" /></g><g
             id="patch_21"><path
               class="st3"
               d="m 62.92,44.41 -4.52,5.97 7.54,2.3 -3.03,-8.26 z"
               id="path64" /></g><g
             id="patch_22"><path
               class="st3"
               d="m 50.82,51.61 7.58,-1.23 -4.68,-3.1 z"
               id="path65" /></g><g
             id="patch_23"><path
               class="st3"
               d="m 50.82,51.61 2.9,-4.33 -4.79,-1.21 1.89,5.55 z"
               id="path66" /></g><g
             id="patch_24"><path
               class="st3"
               d="M 41.04,39.21 36.51,32.74 35.6,44.99 Z"
               id="path67" /></g><g
             id="patch_25"><path
               class="st3"
               d="m 41.04,39.21 3.46,-7.32 -7.98,0.85 4.53,6.47 z"
               id="path68" /></g><g
             id="patch_26"><path
               class="st3"
               d="m 51.87,28.32 5.57,-5.6 -12.3,1.22 z"
               id="path69" /></g><g
             id="patch_27"><path
               class="st3"
               d="m 51.87,28.32 -2.02,5.33 4.92,-0.49 z"
               id="path70" /></g><g
             id="patch_28"><path
               class="st3"
               d="m 64.26,37.33 -4.44,-6.58 -0.96,5.18 z"
               id="path71" /></g><g
             id="patch_29"><path
               class="st3"
               d="m 64.26,37.33 -1.34,7.07 8.1,-2.93 z"
               id="path72" /></g><g
             id="patch_30"><path
               class="st3"
               d="m 59.82,30.75 -7.95,-2.43 2.9,4.84 z"
               id="path73" /></g><g
             id="patch_31"><path
               class="st3"
               d="m 59.82,30.75 4.44,6.58 3.4,-7.69 z"
               id="path74" /></g><g
             id="patch_32"><path
               class="st3"
               d="m 44.5,31.89 7.38,-3.56 -6.73,-4.38 -0.64,7.94 z"
               id="path75" /></g><g
             id="patch_33"><path
               class="st3"
               d="m 44.5,31.89 -3.46,7.32 5.36,-2.04 -1.91,-5.29 z"
               id="path76" /></g><g
             id="patch_34"><path
               class="st3"
               d="m 43.24,46.95 7.57,4.66 -1.89,-5.55 z"
               id="path77" /></g><g
             id="patch_35"><path
               class="st3"
               d="m 43.24,46.95 -2.2,-7.74 -5.44,5.78 z"
               id="path78" /></g><g
             id="patch_36"><path
               class="st3"
               d="m 58.4,50.37 -7.58,1.23 3.99,6.39 z"
               id="path79" /></g><g
             id="patch_37"><path
               class="st3"
               d="m 58.4,50.37 4.52,-5.97 -4.74,0.74 0.23,5.23 z"
               id="path80" /></g></g></g><circle
         class="st2"
         cx="53.029999"
         cy="40.049999"
         r="7.1900001"
         id="circle80" /></g></g></svg>
