<?xml version="1.0" encoding="UTF-8" standalone="no"?>
<!-- Created with Inkscape (http://www.inkscape.org/) -->

<svg
   width="70mm"
   height="50mm"
   viewBox="0 0 70 49.999999"
   version="1.1"
   id="svg1"
   xml:space="preserve"
   sodipodi:docname="4c-logo.svg"
   inkscape:version="1.1.2 (0a00cf5339, 2022-02-04)"
   xmlns:inkscape="http://www.inkscape.org/namespaces/inkscape"
   xmlns:sodipodi="http://sodipodi.sourceforge.net/DTD/sodipodi-0.dtd"
   xmlns:xlink="http://www.w3.org/1999/xlink"
   xmlns="http://www.w3.org/2000/svg"
   xmlns:svg="http://www.w3.org/2000/svg"><sodipodi:namedview
     id="namedview1"
     pagecolor="#ffffff"
     bordercolor="#000000"
     borderopacity="0.25"
     inkscape:showpageshadow="2"
     inkscape:pageopacity="0.0"
     inkscape:pagecheckerboard="0"
     inkscape:deskcolor="#d1d1d1"
     inkscape:document-units="mm"
     inkscape:zoom="1.8520833"
     inkscape:cx="132.28347"
     inkscape:cy="132.0135"
     inkscape:window-width="1346"
     inkscape:window-height="966"
     inkscape:window-x="574"
     inkscape:window-y="27"
     inkscape:window-maximized="0"
     inkscape:current-layer="layer1"
     inkscape:pageshadow="2"
     showgrid="false"
     height="50mm" /><defs
     id="defs1"><linearGradient
       id="linearGradient9"
       inkscape:collect="always"><stop
         style="stop-color:#000000;stop-opacity:1;"
         offset="0"
         id="stop9" /><stop
         style="stop-color:#000000;stop-opacity:1;"
         offset="0.33076921"
         id="stop15" /><stop
         style="stop-color:#27607d;stop-opacity:1;"
         offset="0.47499999"
         id="stop14" /><stop
         style="stop-color:#27607d;stop-opacity:1;"
         offset="0.69615382"
         id="stop12" /><stop
         style="stop-color:#94b7da;stop-opacity:1;"
         offset="0.82115382"
         id="stop13" /><stop
         style="stop-color:#96b7e4;stop-opacity:1;"
         offset="0.89807689"
         id="stop11" /><stop
         style="stop-color:#000000;stop-opacity:1;"
         offset="1"
         id="stop10" /></linearGradient><radialGradient
       inkscape:collect="always"
       xlink:href="#linearGradient9"
       id="radialGradient10"
       cx="120.531"
       cy="81.701569"
       fx="120.531"
       fy="81.701569"
       r="8.2548847"
       gradientUnits="userSpaceOnUse"
       gradientTransform="translate(68.787579,81.858707)" /></defs><g
     inkscape:label="Ebene 1"
     inkscape:groupmode="layer"
     id="layer1"
     transform="translate(-140.55608,-143.11048)"><circle
       style="fill:url(#radialGradient10);stroke-width:20.2"
       id="path9"
       cx="189.31859"
       cy="163.56029"
       r="8.2548847" /><path
       style="fill:#010202"
       d="m 156.34288,187.26764 c -6.37147,-0.8024 -10.37432,-3.48143 -12.17735,-8.15006 -0.94903,-2.45736 -0.9634,-4.61304 -0.0443,-6.64013 1.14701,-2.52968 3.79299,-4.16372 6.42049,-3.965 2.89881,0.21924 4.73959,2.94461 4.28981,6.35133 -0.14634,1.10841 -0.34058,1.38883 -0.96201,1.38883 -0.7642,0 -0.86986,-0.24455 -0.86986,-2.01312 0,-1.78319 -0.1319,-2.29795 -0.77643,-3.03017 -0.60824,-0.691 -1.2172,-0.90948 -2.37594,-0.85242 -1.16052,0.0571 -2.006,0.43616 -2.92195,1.30982 -1.23285,1.17594 -1.70098,2.42254 -1.61014,4.28774 0.0986,2.02392 1.01833,4.08039 2.54753,5.69589 1.95192,2.06206 4.51457,3.22136 8.21044,3.71427 1.58903,0.21192 5.16117,0.23756 7.07489,0.0508 6.10014,-0.5954 13.9025,-2.8038 20.58676,-5.82693 4.4177,-1.99802 5.14122,-2.35462 6.92238,-3.4118 2.50474,-1.48664 5.96353,-4.06223 7.28053,-5.42146 0.28439,-0.2935 0.46315,-0.53364 0.39725,-0.53364 -0.0659,0 -0.50734,0.13242 -0.98099,0.29426 -3.38375,1.15623 -7.59142,1.78742 -11.93744,1.79072 -2.86122,0.002 -4.42345,-0.11656 -6.9589,-0.5289 -5.76858,-0.93814 -10.90065,-2.99125 -14.80302,-5.92204 l -0.82722,-0.62126 h -8.95 c -7.62816,0 -8.99847,-0.0251 -9.27813,-0.16968 -0.55688,-0.28798 -0.6447,-0.94419 -0.18754,-1.40134 l 0.28468,-0.28469 8.90687,-0.002 8.90687,-0.002 0.98584,-0.99626 c 4.16364,-4.20765 10.51925,-6.93956 17.62923,-7.5778 1.68906,-0.15162 4.76496,-0.15293 6.49497,-0.003 6.81658,0.59168 13.35842,3.21591 18.08331,7.25403 1.95328,1.66938 2.14607,2.1465 1.22425,3.02976 -0.28892,0.27684 -0.91864,0.81591 -1.39938,1.19793 l -0.87406,0.69459 h 0.61901 c 0.84467,0 2.18286,0.38446 2.43894,0.70071 0.25464,0.31447 0.26111,0.67494 0.0183,1.02153 -0.27491,0.3925 -0.609,0.47395 -1.2054,0.29386 -1.97958,-0.59776 -4.08133,-0.0838 -5.31426,1.2995 -0.57008,0.63961 -0.94875,1.48887 -0.94875,2.12781 0,1.53277 1.40472,3.09373 3.20779,3.56457 0.76544,0.19989 2.13144,0.16354 3.19696,-0.0851 0.64259,-0.14992 0.67296,-0.14609 0.95685,0.12061 0.37778,0.3549 0.39592,0.94214 0.0394,1.27433 -0.13961,0.13006 -0.30923,0.23667 -0.37694,0.23691 -0.0677,2.4e-4 0.0465,0.10386 0.25383,0.23026 0.31165,0.19001 0.37695,0.30135 0.37695,0.64274 0,0.28376 -0.0891,0.50196 -0.28469,0.69759 l -0.28468,0.28468 -3.6297,-6e-5 -3.6297,-6e-5 0.0322,3.52726 c 0.0322,3.5255 0.0321,3.52741 -0.23197,3.8344 -0.37212,0.43259 -0.96246,0.43928 -1.32737,0.015 l -0.27063,-0.31462 v -3.52459 -3.52458 l -2.50386,-0.0354 -2.50386,-0.0354 -0.2797,-0.32542 c -0.51046,-0.59389 -0.43968,-0.7483 1.33525,-2.91301 0.22554,-0.27507 0.22838,-0.27665 -1.325,0.73634 -1.25946,0.82131 -3.07013,1.79492 -6.14703,3.30528 -7.01633,3.44411 -14.36012,5.78043 -21.5726,6.86299 -1.63605,0.24557 -2.49489,0.30311 -5.04521,0.33804 -1.69043,0.0232 -3.44798,-0.005 -3.90565,-0.0627 z m 41.94766,-11.47896 c 0,-0.95685 -0.0221,-1.73973 -0.0492,-1.73973 -0.0499,0 -2.49699,3.06805 -2.65958,3.33448 -0.0689,0.11286 0.22139,0.14498 1.31016,0.14498 h 1.39862 z m 3.45268,1.45517 c -0.30179,-0.14979 -0.81066,-0.46464 -1.13083,-0.69966 l -0.58212,-0.42732 v 0.70577 0.70577 l 1.13082,-0.006 1.13082,-0.006 z m -12.86066,-6.85312 c 5.41567,-0.47663 10.49719,-2.10257 14.1026,-4.51243 1.31275,-0.87744 2.26429,-1.63375 2.26429,-1.79973 0,-0.16372 -2.2159,-1.91307 -3.43533,-2.71202 -1.32708,-0.86949 -3.67864,-2.06889 -5.14732,-2.62536 -0.54222,-0.20544 -1.09023,-0.41885 -1.21781,-0.47424 -0.49435,-0.21465 -2.67722,-0.80905 -3.97456,-1.08228 -7.0018,-1.47467 -14.3987,-0.71773 -20.42629,2.09026 -2.1164,0.98595 -4.32416,2.47401 -5.98088,4.03121 l -0.80638,0.75795 0.52257,0.39902 c 1.55896,1.19035 4.18344,2.63355 6.30938,3.46952 3.61324,1.4208 7.12313,2.18046 11.83013,2.56043 1.29711,0.10471 4.16713,0.0554 5.9596,-0.10233 z m -44.46553,-10.85744 c -0.59208,-0.32384 -0.69954,-0.97479 -0.23724,-1.4371 l 0.28469,-0.28468 h 8.8002 8.8002 l 0.51261,-0.47016 c 4.63737,-4.25341 10.39305,-6.76771 17.67789,-7.72238 2.12861,-0.27895 6.61126,-0.28095 8.87261,-0.004 5.81483,0.71226 11.08191,2.59973 15.59954,5.59012 1.43899,0.95253 3.10914,2.27811 3.4538,2.74126 0.26594,0.35737 0.20967,0.78293 -0.15127,1.14386 -0.42428,0.42428 -0.80651,0.29887 -1.98179,-0.65024 -4.51708,-3.6478 -10.01879,-5.97248 -16.3634,-6.91413 -1.52964,-0.22703 -2.22312,-0.26257 -5.02218,-0.25744 -3.49881,0.006 -5.03615,0.16512 -7.88676,0.81412 -5.13964,1.17016 -9.66289,3.48344 -12.93335,6.61439 -0.41539,0.39768 -0.90157,0.77867 -1.08038,0.84666 -0.46077,0.17518 -18.02407,0.1653 -18.34517,-0.0103 z"
       id="path1"
       sodipodi:nodetypes="cssssssscsssscssssscsscscscccsscssscsssssssssssssscccssscccccssssssccsssscscscccccccsssssssscssscsscccsscssssscsssss"
       inkscape:export-filename="4c-logo.svg"
       inkscape:export-xdpi="96"
       inkscape:export-ydpi="96" /></g></svg>
