<?xml version="1.0" encoding="UTF-8" standalone="no"?>
<!-- Created with Inkscape (http://www.inkscape.org/) -->

<svg
   width="70mm"
   height="55mm"
   viewBox="0 0 70 54.999999"
   version="1.1"
   id="svg1"
   xml:space="preserve"
   sodipodi:docname="4c-logo-mobile.svg"
   inkscape:version="1.1.2 (0a00cf5339, 2022-02-04)"
   xmlns:inkscape="http://www.inkscape.org/namespaces/inkscape"
   xmlns:sodipodi="http://sodipodi.sourceforge.net/DTD/sodipodi-0.dtd"
   xmlns="http://www.w3.org/2000/svg"
   xmlns:svg="http://www.w3.org/2000/svg"><sodipodi:namedview
     id="namedview1"
     pagecolor="#ffffff"
     bordercolor="#000000"
     borderopacity="0.25"
     inkscape:showpageshadow="2"
     inkscape:pageopacity="0.0"
     inkscape:pagecheckerboard="0"
     inkscape:deskcolor="#d1d1d1"
     inkscape:document-units="mm"
     inkscape:zoom="1.8520833"
     inkscape:cx="132.28346"
     inkscape:cy="132.0135"
     inkscape:window-width="1346"
     inkscape:window-height="966"
     inkscape:window-x="574"
     inkscape:window-y="27"
     inkscape:window-maximized="0"
     inkscape:current-layer="layer1"
     inkscape:pageshadow="2"
     showgrid="false" /><defs
     id="defs1" /><g
     inkscape:label="Ebene 1"
     inkscape:groupmode="layer"
     id="layer1"
     transform="translate(-140.55608,-143.11048)"><g
       aria-label="4C"
       id="text2198"
       style="font-size:10.5833px;line-height:1.25;letter-spacing:0px;word-spacing:0px;fill:#27607d;fill-opacity:1;stroke:#27607d;stroke-width:0.264583;stroke-opacity:1"
       transform="matrix(3.6420914,0,0,3.6420914,-436.68297,-567.62038)"><path
         d="m 166.72879,203.21413 q 0.20108,0 0.33866,0.13758 0.13758,0.127 0.13758,0.32808 0,0.20108 -0.13758,0.32808 -0.13758,0.127 -0.33866,0.127 h -0.56092 v 1.61925 q 0,0.21166 -0.14817,0.35983 -0.14816,0.14817 -0.35983,0.14817 -0.21166,0 -0.35983,-0.14817 -0.13758,-0.14817 -0.13758,-0.35983 v -1.61925 h -2.89983 q -0.1905,0 -0.34925,-0.14816 -0.14816,-0.14817 -0.14816,-0.34925 0,-0.1905 0.11641,-0.33867 l 3.37608,-4.2439 q 0.0741,-0.0952 0.17991,-0.14817 0.11642,-0.0529 0.23284,-0.0529 0.21166,0 0.34924,0.14816 0.14817,0.14817 0.14817,0.35983 v 3.85233 z m -3.63008,0 h 2.06375 v -2.64583 z"
         style="font-family:'Quicksand Medium';-inkscape-font-specification:'Quicksand Medium, ';fill:#27607d;fill-opacity:1;stroke:#27607d;stroke-opacity:1"
         id="path22236" /><path
         d="m 174.04183,199.28772 q 0.254,0.13758 0.254,0.42333 0,0.1905 -0.127,0.34925 -0.127,0.16933 -0.34925,0.16933 -0.14817,0 -0.28575,-0.0741 -0.65616,-0.37041 -1.41816,-0.37041 -0.79375,0 -1.40758,0.34924 -0.60325,0.34925 -0.94191,0.98425 -0.33867,0.62442 -0.33867,1.43933 0,0.87841 0.34925,1.51341 0.34925,0.635 0.96308,0.97367 0.61383,0.32808 1.37583,0.32808 0.78316,0 1.41816,-0.381 0.127,-0.0635 0.27517,-0.0635 0.23283,0 0.37041,0.17992 0.127,0.15875 0.127,0.33866 0,0.127 -0.0741,0.24342 -0.0635,0.10583 -0.17992,0.16933 -0.41275,0.23283 -0.93133,0.37042 -0.508,0.13758 -1.00541,0.13758 -1.02658,0 -1.89441,-0.45508 -0.85725,-0.45509 -1.37583,-1.32292 -0.508,-0.86783 -0.508,-2.03199 0,-1.06891 0.48683,-1.92616 0.49742,-0.86783 1.35467,-1.35466 0.86783,-0.49742 1.93674,-0.49742 1.02658,0 1.92616,0.508 z"
         style="font-family:'Quicksand Medium';-inkscape-font-specification:'Quicksand Medium, ';fill:#27607d;fill-opacity:1;stroke:#27607d;stroke-opacity:1"
         id="path22238" /></g><rect
       style="fill:none;stroke:#000000;stroke-width:3.06411;stroke-miterlimit:4;stroke-dasharray:none"
       id="rect22110"
       width="58.049274"
       height="40.709057"
       x="146.34073"
       y="150.40382"
       ry="7.0181813" /></g></svg>
