<?xml version="1.0" encoding="UTF-8" standalone="no"?>
<!-- Created with Inkscape (http://www.inkscape.org/) -->

<svg
   width="32"
   height="32"
   viewBox="0 0 8.4666668 8.4666664"
   version="1.1"
   id="svg1"
   xml:space="preserve"
   sodipodi:docname="4c-favicon-32x32.svg"
   inkscape:version="1.1.2 (0a00cf5339, 2022-02-04)"
   xmlns:inkscape="http://www.inkscape.org/namespaces/inkscape"
   xmlns:sodipodi="http://sodipodi.sourceforge.net/DTD/sodipodi-0.dtd"
   xmlns:xlink="http://www.w3.org/1999/xlink"
   xmlns="http://www.w3.org/2000/svg"
   xmlns:svg="http://www.w3.org/2000/svg"><sodipodi:namedview
     id="namedview1"
     pagecolor="#ffffff"
     bordercolor="#000000"
     borderopacity="0.25"
     inkscape:showpageshadow="2"
     inkscape:pageopacity="0.0"
     inkscape:pagecheckerboard="0"
     inkscape:deskcolor="#d1d1d1"
     inkscape:document-units="mm"
     inkscape:zoom="23.65625"
     inkscape:cx="15.978864"
     inkscape:cy="16"
     inkscape:window-width="1920"
     inkscape:window-height="966"
     inkscape:window-x="0"
     inkscape:window-y="27"
     inkscape:window-maximized="1"
     inkscape:current-layer="layer1"
     inkscape:pageshadow="2"
     showgrid="false"
     height="50mm"
     units="px"
     width="32px" /><defs
     id="defs1"><linearGradient
       id="linearGradient9"
       inkscape:collect="always"><stop
         style="stop-color:#000000;stop-opacity:1;"
         offset="0"
         id="stop9" /><stop
         style="stop-color:#000000;stop-opacity:1;"
         offset="0.33076921"
         id="stop15" /><stop
         style="stop-color:#27607d;stop-opacity:1;"
         offset="0.47499999"
         id="stop14" /><stop
         style="stop-color:#27607d;stop-opacity:1;"
         offset="0.69615382"
         id="stop12" /><stop
         style="stop-color:#94b7da;stop-opacity:1;"
         offset="0.82115382"
         id="stop13" /><stop
         style="stop-color:#96b7e4;stop-opacity:1;"
         offset="0.89807689"
         id="stop11" /><stop
         style="stop-color:#000000;stop-opacity:1;"
         offset="1"
         id="stop10" /></linearGradient><radialGradient
       inkscape:collect="always"
       xlink:href="#linearGradient9"
       id="radialGradient10"
       cx="120.531"
       cy="81.701569"
       fx="120.531"
       fy="81.701569"
       r="8.2548847"
       gradientUnits="userSpaceOnUse"
       gradientTransform="matrix(0.16985019,0,0,0.16985019,124.38052,131.78546)" /></defs><g
     inkscape:label="Ebene 1"
     inkscape:groupmode="layer"
     id="layer1"
     transform="translate(-140.55608,-143.11048)"><rect
       style="fill:#dbe7f5;fill-opacity:1;stroke:none;stroke-width:0.406112;stroke-linecap:round;stroke-linejoin:round"
       id="rect856"
       width="8.4507551"
       height="8.4586048"
       x="140.56177"
       y="143.12105"
       ry="0" /><circle
       style="fill:url(#radialGradient10);stroke-width:3.43097"
       id="path9"
       cx="144.85274"
       cy="145.66249"
       r="1.4020938" /><path
       style="fill:#010202;stroke-width:0.16985"
       d="m 139.32679,149.63109 c -1.08219,-0.13628 -1.76208,-0.59132 -2.06832,-1.38429 -0.16119,-0.41738 -0.16364,-0.78352 -0.008,-1.12782 0.19482,-0.42967 0.64424,-0.70721 1.09053,-0.67346 0.49236,0.0372 0.80502,0.50014 0.72862,1.07878 -0.0249,0.18826 -0.0579,0.23589 -0.1634,0.23589 -0.1298,0 -0.14774,-0.0415 -0.14774,-0.34193 0,-0.30288 -0.0224,-0.39031 -0.13188,-0.51468 -0.10331,-0.11736 -0.20674,-0.15447 -0.40355,-0.14478 -0.19712,0.01 -0.34072,0.0741 -0.4963,0.22247 -0.2094,0.19974 -0.28891,0.41147 -0.27348,0.72828 0.0168,0.34376 0.17296,0.69305 0.4327,0.96745 0.33153,0.35024 0.7668,0.54714 1.39454,0.63086 0.2699,0.036 0.87663,0.0404 1.20167,0.009 1.03611,-0.10113 2.36135,-0.47622 3.49667,-0.9897 0.75035,-0.33937 0.87324,-0.39993 1.17577,-0.5795 0.42543,-0.2525 1.0129,-0.68997 1.2366,-0.92083 0.0483,-0.0498 0.0787,-0.0906 0.0675,-0.0906 -0.0112,0 -0.0862,0.0225 -0.16662,0.05 -0.57473,0.19638 -1.28941,0.30359 -2.02758,0.30415 -0.48598,3.4e-4 -0.75132,-0.0198 -1.18197,-0.0898 -0.97979,-0.15934 -1.85148,-0.50807 -2.51429,-1.00586 l -0.14051,-0.10552 h -1.51972 c -1.29564,0 -1.52839,-0.004 -1.57589,-0.0288 -0.0946,-0.0489 -0.1095,-0.16037 -0.0318,-0.23802 l 0.0483,-0.0483 1.51283,-3.4e-4 1.51284,-3.4e-4 0.16744,-0.16922 c 0.7072,-0.71467 1.7867,-1.17868 2.99433,-1.28709 0.28689,-0.0258 0.80933,-0.026 1.10317,-5.1e-4 1.1578,0.1005 2.26893,0.54622 3.07146,1.2321 0.33176,0.28354 0.36451,0.36458 0.20793,0.5146 -0.0491,0.047 -0.15603,0.13859 -0.23768,0.20347 l -0.14846,0.11798 h 0.10514 c 0.14347,0 0.37076,0.0653 0.41425,0.11902 0.0433,0.0534 0.0444,0.11463 0.003,0.1735 -0.0467,0.0667 -0.10344,0.0805 -0.20474,0.0499 -0.33623,-0.10153 -0.69321,-0.0142 -0.90262,0.22072 -0.57911,0.57878 -1.35284,1.18281 -2.43664,1.67161 -1.19173,0.58499 -2.43907,0.98181 -3.66411,1.16568 -0.27789,0.0417 -0.42376,0.0515 -0.85693,0.0574 -0.28712,0.004 -0.58564,-8.5e-4 -0.66338,-0.0106 z m 5.52687,-2.86654 c 0.91986,-0.081 1.78295,-0.35713 2.39533,-0.76644 0.22297,-0.14903 0.38459,-0.27749 0.38459,-0.30568 0,-0.0278 -0.37637,-0.32494 -0.58349,-0.46064 -0.2254,-0.14768 -0.62482,-0.3514 -0.87427,-0.44592 -0.0921,-0.0349 -0.18518,-0.0711 -0.20685,-0.0806 -0.084,-0.0365 -0.45472,-0.13742 -0.67508,-0.18382 -1.18925,-0.25048 -2.44562,-0.12191 -3.46941,0.35503 -0.35947,0.16746 -0.73445,0.42021 -1.01585,0.6847 l -0.13696,0.12874 0.0888,0.0678 c 0.26479,0.20218 0.71055,0.44731 1.07165,0.5893 0.6137,0.24132 1.20986,0.37035 2.00935,0.43489 0.22031,0.0178 0.70778,0.009 1.01223,-0.0174 z m -7.55247,-1.84414 c -0.10057,-0.055 -0.11882,-0.16557 -0.0403,-0.24409 l 0.0484,-0.0484 h 1.49471 1.49472 l 0.0871,-0.0798 c 0.78766,-0.72245 1.76526,-1.1495 3.0026,-1.31165 0.36154,-0.0474 1.12292,-0.0477 1.50701,-6.8e-4 0.98765,0.12098 1.88227,0.44156 2.64959,0.94948 0.24441,0.16179 0.52808,0.38694 0.58662,0.46561 0.0452,0.0607 0.0356,0.13298 -0.0257,0.19428 -0.0721,0.0721 -0.13699,0.0508 -0.33661,-0.11044 -0.76722,-0.61958 -1.70169,-1.01443 -2.77932,-1.17437 -0.25981,-0.0386 -0.3776,-0.0446 -0.85302,-0.0437 -0.59427,0.001 -0.85539,0.028 -1.33957,0.13827 -0.87297,0.19876 -1.64124,0.59167 -2.19673,1.12346 -0.0706,0.0675 -0.15313,0.13226 -0.1835,0.1438 -0.0783,0.0298 -3.0614,0.0281 -3.11593,-0.002 z"
       id="path1"
       sodipodi:nodetypes="cssssssscsssscssssscsscscscccsscssscssssccssccssssssssscssscsscccsscssssscssssss"
       inkscape:export-filename="4c-logo.svg"
       inkscape:export-xdpi="96"
       inkscape:export-ydpi="96" /><path
       style="fill:none;stroke:#000000;stroke-width:0.485263;stroke-linecap:round;stroke-linejoin:round;stroke-miterlimit:4;stroke-dasharray:none;stroke-opacity:1"
       d="m 146.30534,151.27043 v -3.67676 l -1.67354,2.03716 h 3.7585"
       id="path922"
       sodipodi:nodetypes="cccc" /><path
       style="fill:none;stroke:#000000;stroke-width:0.485263;stroke-linecap:round;stroke-linejoin:round;stroke-miterlimit:4;stroke-dasharray:none;stroke-opacity:1"
       d="m 148.63083,146.93556 c -1.23774,-0.50217 -2.08396,0.39859 -2.04757,1.23055 -9.6e-4,0.76436 1.00946,1.38129 2.06108,1.05137"
       id="path1091"
       sodipodi:nodetypes="ccc" /></g></svg>
